# File created by Blade
# Date/Time:  Wed Jan 21 16:20:01 2015
# Frame Rate: 120.000 fps
#------------------------------------------------------
:FULLY-SPECIFIED
:DEGREES
419
root 19.515802 35.860144 -21.029091 -188.925438 31.730626 -178.876914
Spine 5.518379 37.064567 -0.956034
Head 31.893905 26.466035 12.102394
LeftShoulder -14.515072 -26.936959 9.277366
LeftArm -33.411769 -6.735586 -25.897946
LeftForeArm -9.186691 -0.000000 9.994845
LeftHand -6.283608 -0.000000 10.185906
LeftHandThumb1 -26.253704 0.000000 33.147579
RightShoulder -4.878313 -13.473672 9.436063
RightArm 30.077731 -8.652224 37.164368
RightForeArm -41.203920 -0.000000 69.348476
RightHand 3.364417 0.000000 7.546236
RightHandThumb1 -24.326973 -0.000000 -32.862282
LeftUpLeg -69.344079 -17.312924 -16.046002
LeftLeg 88.430359 -0.000000 -0.000000
LeftFoot 25.196036 16.077404 1.450659
LeftToeBase -171.884407 -0.000000 0.000000
RightUpLeg 14.004744 8.584088 10.729419
RightLeg 1.926867 -0.000000 -0.000000
RightFoot -16.463082 -9.647503 13.939371
RightToeBase 20.009141 -0.000000 -0.000000
420
root 19.533304 35.867487 -20.990199 -188.845648 31.550263 -178.868845
Spine 5.420911 37.096704 -1.034135
Head 31.785324 25.393546 11.707531
LeftShoulder -14.530150 -26.841409 9.173458
LeftArm -33.040858 -6.998870 -26.087454
LeftForeArm -9.238004 -0.000000 9.998327
LeftHand -6.339751 -0.000000 10.568884
LeftHandThumb1 -26.253704 0.000000 33.147579
RightShoulder -4.909443 -13.388734 9.502296
RightArm 29.985285 -8.392745 37.416318
RightForeArm -41.297320 -0.000000 69.458572
RightHand 3.276421 0.000000 7.896454
RightHandThumb1 -24.326973 -0.000000 -32.862282
LeftUpLeg -69.050315 -16.536905 -15.719489
LeftLeg 88.246388 -0.000000 -0.000000
LeftFoot 24.990541 16.115993 1.504256
LeftToeBase -171.680494 -0.000000 0.000000
RightUpLeg 13.881212 7.933592 10.557101
RightLeg 1.831631 -0.000000 -0.000000
RightFoot -16.381117 -9.114795 14.247202
RightToeBase 20.865481 -0.000000 -0.000000
421
root 19.552065 35.875552 -20.948475 -188.839776 31.382909 -178.882185
Spine 5.453702 37.109278 -1.066976
Head 31.662411 24.399170 11.312560
LeftShoulder -14.559190 -26.910868 9.103801
LeftArm -32.800827 -7.199813 -26.239233
LeftForeArm -9.245228 -0.000000 10.023973
LeftHand -6.178312 -0.000000 10.317075
LeftHandThumb1 -26.253704 0.000000 33.147579
RightShoulder -4.886622 -13.324275 9.548903
RightArm 29.872233 -8.069124 37.711084
RightForeArm -41.382631 0.000000 69.537494
RightHand 3.317731 0.000000 8.223393
RightHandThumb1 -24.326973 -0.000000 -32.862282
LeftUpLeg -68.661707 -15.707813 -15.406076
LeftLeg 88.020722 -0.000000 -0.000000
LeftFoot 24.674376 16.203247 1.546827
LeftToeBase -171.861582 -0.000000 0.000000
RightUpLeg 13.835341 7.312849 10.404886
RightLeg 1.721765 -0.000000 -0.000000
RightFoot -16.282432 -8.623887 14.589873
RightToeBase 21.783584 -0.000000 -0.000000
422
root 19.569889 35.883135 -20.910870 -188.765455 31.228864 -178.858377
Spine 5.389203 37.159631 -1.093769
Head 31.529709 23.306143 10.881436
LeftShoulder -14.537412 -26.882686 8.970226
LeftArm -32.517766 -7.376733 -26.424570
LeftForeArm -9.457256 -0.000000 10.035612
LeftHand -6.180012 -0.000000 10.518985
LeftHandThumb1 -26.253704 0.000000 33.147579
RightShoulder -4.942183 -13.241296 9.626737
RightArm 29.693378 -7.789301 38.033984
RightForeArm -41.503913 -0.000000 69.605479
RightHand 3.248355 -0.000000 8.550000
RightHandThumb1 -24.326973 -0.000000 -32.862282
LeftUpLeg -68.280187 -14.851778 -15.057802
LeftLeg 87.789949 -0.000000 -0.000000
LeftFoot 24.309144 16.193838 1.706120
LeftToeBase -171.541582 -0.000000 0.000000
RightUpLeg 13.739625 6.720769 10.283055
RightLeg 1.652684 -0.000000 -0.000000
RightFoot -16.095743 -8.029792 15.086878
RightToeBase 21.976542 -0.000000 -0.000000
423
root 19.587075 35.888886 -20.871717 -188.639121 31.056079 -178.860863
Spine 5.206247 37.151367 -1.233403
Head 31.474395 22.350366 10.586594
LeftShoulder -14.586231 -26.837440 8.914600
LeftArm -32.172546 -7.765036 -26.498074
LeftForeArm -9.547805 -0.000000 9.835335
LeftHand -6.103492 -0.000000 10.475055
LeftHandThumb1 -26.253704 0.000000 33.147579
RightShoulder -4.970062 -13.260760 9.721712
RightArm 29.546630 -7.445553 38.422546
RightForeArm -41.710398 -0.000000 69.634221
RightHand 3.032269 -0.000000 8.747649
RightHandThumb1 -24.326973 -0.000000 -32.862282
LeftUpLeg -67.927401 -14.024088 -14.695718
LeftLeg 87.517018 -0.000000 -0.000000
LeftFoot 23.975136 16.293889 1.928871
LeftToeBase -171.177468 -0.000000 0.000000
RightUpLeg 13.580664 6.065188 10.122195
RightLeg 1.568039 -0.000000 -0.000000
RightFoot -15.971019 -7.453688 15.280363
RightToeBase 22.788052 -0.000000 -0.000000
424
root 19.602299 35.895044 -20.833745 -188.532182 30.902684 -178.915789
Spine 4.994751 37.149324 -1.447220
Head 31.394845 21.322528 10.299478
LeftShoulder -14.565114 -26.832151 8.873449
LeftArm -31.975387 -8.147226 -26.528846
LeftForeArm -9.509475 0.000000 9.699530
LeftHand -6.056519 -0.000000 10.512277
LeftHandThumb1 -26.253704 0.000000 33.147579
RightShoulder -4.976826 -13.265068 9.857657
RightArm 29.339114 -7.103412 38.810061
RightForeArm -41.795673 -0.000000 69.593747
RightHand 3.072828 -0.000000 9.036092
RightHandThumb1 -24.326973 -0.000000 -32.862282
LeftUpLeg -67.539380 -13.162428 -14.367316
LeftLeg 87.192184 -0.000000 -0.000000
LeftFoot 23.652719 16.352496 2.057585
LeftToeBase -171.307874 -0.000000 0.000000
RightUpLeg 13.443028 5.557262 9.966507
RightLeg 1.460519 -0.000000 -0.000000
RightFoot -15.830769 -7.038573 15.367408
RightToeBase 23.254238 -0.000000 -0.000000
425
root 19.618524 35.898583 -20.797632 -188.392661 30.710964 -178.959231
Spine 4.742886 37.108571 -1.686557
Head 31.302894 20.361283 10.058449
LeftShoulder -14.541447 -26.836615 8.862003
LeftArm -31.824393 -8.408618 -26.631497
LeftForeArm -9.562829 -0.000000 9.619429
LeftHand -6.003426 -0.000000 10.511181
LeftHandThumb1 -26.253704 0.000000 33.147579
RightShoulder -5.032847 -13.274802 10.002108
RightArm 29.135872 -6.791776 39.226802
RightForeArm -41.876298 -0.000000 69.479346
RightHand 3.050252 0.000000 9.074782
RightHandThumb1 -24.326973 -0.000000 -32.862282
LeftUpLeg -67.142391 -12.386419 -14.002121
LeftLeg 86.863328 -0.000000 -0.000000
LeftFoot 23.332144 16.526191 2.222403
LeftToeBase -171.040964 -0.000000 0.000000
RightUpLeg 13.274435 5.032209 9.817399
RightLeg 1.375991 -0.000000 -0.000000
RightFoot -15.753448 -6.589340 15.471127
RightToeBase 23.897568 -0.000000 -0.000000
